#N canvas 529 90 1622 898 12;
#X floatatom 201 97 5 0 0 0 - - -;
#X text 260 96 Speed;
#X msg 200 132 tempo \$1 permin;
#X obj 202 216 bng 15 250 50 0 empty empty empty 17 7 0 10 -262144
-1 -1;
#X obj 201 246 f;
#X obj 242 246 + 1;
#X obj 201 329 hradio 10 1 0 64 empty empty empty 0 -8 0 10 -262144
-1 -1 36;
#X obj 201 358 array get \$0-pitches;
#X floatatom 201 426 5 0 0 0 - - -;
#N canvas 1277 159 450 728 synth 1;
#X obj 37 37 inlet;
#X obj 123 37 inlet;
#X obj 212 37 inlet;
#X obj 38 91 mtof;
#X floatatom 37 137 5 0 0 0 - - -;
#X floatatom 122 91 5 0 0 0 - - -;
#X obj 38 183 pack;
#X obj 38 231 line~;
#X obj 37 290 phasor~;
#X obj 37 372 expr~ $v1 - 1;
#X obj 37 396 bob~;
#X obj 38 444 *~ 0.1;
#X obj 37 468 dac~;
#X obj 176 316 phasor~;
#X obj 286 286 loadbang;
#X msg 265 311 550;
#X msg 326 311 3;
#X floatatom 326 347 5 0 0 0 - - -;
#X floatatom 265 346 5 0 0 0 - - -;
#X obj 165 218 hsl 128 15 0.01 1 1 0 empty empty empty -2 -8 0 10 -262144
-1 -1 4243 1;
#X msg 38 207 \$1 \$2;
#X obj 37 420 hip~ 5;
#X obj 177 288 *~ 1.05;
#X obj 225 170 / 20096;
#X connect 0 0 3 0;
#X connect 1 0 5 0;
#X connect 2 0 19 0;
#X connect 3 0 4 0;
#X connect 4 0 6 0;
#X connect 4 0 23 0;
#X connect 5 0 6 1;
#X connect 6 0 20 0;
#X connect 7 0 8 0;
#X connect 7 0 22 0;
#X connect 8 0 9 0;
#X connect 9 0 10 0;
#X connect 10 0 21 0;
#X connect 11 0 12 0;
#X connect 11 0 12 1;
#X connect 13 0 9 0;
#X connect 14 0 15 0;
#X connect 14 0 16 0;
#X connect 15 0 18 0;
#X connect 16 0 17 0;
#X connect 17 0 10 2;
#X connect 18 0 10 1;
#X connect 19 0 11 1;
#X connect 20 0 7 0;
#X connect 21 0 11 0;
#X connect 22 0 13 0;
#X connect 23 0 19 0;
#X restore 201 501 pd synth;
#X obj 358 480 hsl 128 15 0.01 1 1 0 empty empty Volume -2 -8 0 10
-262144 -1 -1 1500 1;
#N canvas 0 22 450 278 (subpatch) 0;
#X array \$0-pitches 64 float 5;
#A 0 40.7656 40.5 45.2812 45.2813 42.8906 43.4219 45.8125 45.6797 45.5469
45.4141 45.2812 45.1484 45.0156 45.2812 45.5469 45.8125 46.0781 46.3438
46.6094 46.875 47.1406 47.9375 49.6198 51.3021 54.8438 58.8281 62.8125
64.6719 67.3281 69.9844 72.6406 74.1281 75.6156 77.1031 78.5906 80.875
82.0703 83.2656 84.4609 85.6562 86.8516 88.0469 88.7109 89.375 90.1719
90.9688 91.7656 92.5625 92.8281 93.0937 93.0052 92.9167 92.8281 92.0312
89.375 83.5312 80.0781 76.625 74.5 72.375 70.25 69.4531 68.6562 68.9219
;
#X coords 0 100 63 32 400 256 1 0 0;
#X restore 566 386 graph;
#X floatatom 248 425 5 0 0 0 - - -;
#X obj 150 99 tgl 15 0 empty empty empty 17 7 0 10 -262144 -1 -1 0
1;
#X obj 208 40 hsl 128 15 0 8096 0 0 empty empty empty -2 -8 0 10 -262144
-1 -1 12700 1;
#X obj 359 407 hsl 128 15 100 512 0 0 empty empty empty -2 -8 0 10
-262144 -1 -1 12700 1;
#X obj 199 174 metro 2 5 permin;
#X obj 201 283 % 64;
#X obj 770 28 tgl 15 0 empty empty empty 17 7 0 10 -262144 -1 -1 0
1;
#X msg 769 70 \; pd dsp \$1 \; go \$1;
#X connect 0 0 2 0;
#X connect 2 0 16 0;
#X connect 3 0 4 0;
#X connect 4 0 5 0;
#X connect 4 0 17 0;
#X connect 5 0 4 1;
#X connect 6 0 7 0;
#X connect 7 0 8 0;
#X connect 8 0 9 0;
#X connect 10 0 9 2;
#X connect 12 0 9 1;
#X connect 13 0 16 0;
#X connect 14 0 0 0;
#X connect 15 0 12 0;
#X connect 16 0 3 0;
#X connect 17 0 6 0;
#X connect 18 0 19 0;
#X coords 0 256 16 100 200 127 1 100 100;
