#N canvas 10 25 1622 978 12;
#X obj 86 59 cnv 15 1200 800 empty empty empty 40 50 0 14 -257983 -66577
0;
#X obj 87 37 cnv 15 1200 20 empty empty Mobmuplat_Cat-Sounds 5 10 0
13 -256931 -66577 0;
#X obj 711 93 receive fromGUI;
#X obj 710 127 route list;
#X obj 858 223 print;
#X floatatom 1039 204 5 0 0 0 - - -;
#X msg 1039 229 \; pd dsp \$1;
#X obj 709 155 route /speed /pitch /volume /sample1 /sample2 /sample3
/resolve /loop /play;
#X obj 252 292 print;
#X floatatom 199 233 5 0 0 0 - - -;
#X obj 191 90 bng 15 250 50 0 s2 s2_rcv S2 17 7 0 10 -262144 -1 -1
;
#X obj 234 91 bng 15 250 50 0 s3 s3_rcv S3 17 7 0 10 -262144 -1 -1
;
#X obj 278 92 bng 15 250 50 0 empty empty S4 17 7 0 10 -262144 -1 -1
;
#X obj 150 91 bng 15 250 50 0 s1 s1_rcv S1 17 7 0 10 -262144 -1 -1
;
#X msg 150 119 1;
#X msg 194 117 2;
#X msg 234 117 3;
#X msg 279 118 4;
#X obj 1372 774 readsf~ 2;
#X obj 1377 857 dac~;
#X msg 1340 683 1;
#X obj 1340 630 t b a;
#X msg 1340 711 0;
#X obj 1324 561 bng 15 250 50 0 empty empty empty 17 7 0 10 -66577
-260097 -260097;
#X obj 1432 808 spigot;
#X obj 1471 776 tgl 15 0 empty empty Loop_on/off 17 7 0 10 -262144
-1 -1 0 1;
#X msg 200 265 open ./\$1.wav;
#X msg 1323 600 open ./1.wav;
#X obj 231 461 readsf~ 2;
#X msg 199 398 1;
#X obj 199 317 t b a;
#X msg 134 399 0;
#X obj 291 495 spigot;
#X obj 330 463 tgl 15 0 /loop /loop_rcv Loop_on/off 17 7 0 10 -262144
-1 -1 0 1;
#X obj 292 578 line~;
#X msg 292 552 \$1 20;
#X floatatom 292 525 5 0 0 0 - - -;
#X text 348 524 Lautstaerke;
#X obj 247 604 *~;
#X obj 248 636 hip~ 5;
#X obj 248 680 dac~;
#X text 315 633 moeglichen DC-Offset ausfiltern;
#X obj 427 496 hsl 128 15 0.1 1 1 0 empty empty empty -2 -8 0 10 -262144
-1 -1 6000 1;
#N canvas 0 0 450 300 (subpatch) 0;
#X array array1 62079 float 2;
#X coords 0 1 62079 -1 200 140 1;
#X restore 921 444 graph;
#X obj 653 356 soundfiler;
#X msg 653 330 read -resize \$1 array1;
#X obj 653 383 expr 44100 / $f1;
#X floatatom 653 444 5 0 0 0 - - -;
#X obj 653 496 phasor~;
#X obj 653 536 *~;
#X obj 796 536 unsig~ 50;
#X obj 922 592 hsl 200 15 0 1 0 0 empty empty empty -2 -6 0 8 -262144
-1 -1 0 1;
#X text 920 615 0;
#X text 1122 552 1;
#X obj 652 573 tabread4~ array1;
#X obj 735 659 line~;
#X msg 735 633 \$1 20;
#X floatatom 735 606 5 0 0 0 - - -;
#X text 791 605 Lautstaerke;
#X obj 653 703 *~;
#X obj 654 735 hip~ 5;
#X obj 654 765 dac~;
#X text 721 732 moeglichen DC-Offset ausfiltern;
#X text 911 650 slider zeugt Abspielposition an;
#X obj 653 469 *;
#X obj 749 419 hsl 128 15 -2 2 0 0 empty empty empty -2 -6 0 8 -262144
-1 -1 3800 1;
#X text 736 436 -2;
#X text 874 437 2;
#X text 1054 764 Johannes Kreidler;
#X text 1045 790 www.pd-tutorial.com;
#X obj 690 412 t b f;
#X text 788 397 Abspielgeschwindigkeit;
#X obj 275 720 dac~;
#X obj 332 206 bng 15 250 50 0 empty empty empty 17 7 0 10 -262144
-1 -1;
#X obj 332 167 delay 1000;
#X connect 2 0 3 0;
#X connect 3 0 7 0;
#X connect 5 0 6 0;
#X connect 7 0 4 0;
#X connect 7 1 4 0;
#X connect 7 2 4 0;
#X connect 7 3 4 0;
#X connect 7 4 4 0;
#X connect 7 5 4 0;
#X connect 7 6 4 0;
#X connect 7 7 4 0;
#X connect 7 8 4 0;
#X connect 7 8 5 0;
#X connect 7 9 4 0;
#X connect 9 0 26 0;
#X connect 9 0 45 0;
#X connect 10 0 15 0;
#X connect 11 0 16 0;
#X connect 12 0 17 0;
#X connect 13 0 14 0;
#X connect 14 0 9 0;
#X connect 15 0 9 0;
#X connect 16 0 9 0;
#X connect 17 0 9 0;
#X connect 18 0 19 0;
#X connect 18 1 19 1;
#X connect 18 2 24 0;
#X connect 20 0 18 0;
#X connect 21 0 20 0;
#X connect 21 1 18 0;
#X connect 22 0 18 0;
#X connect 23 0 27 0;
#X connect 24 0 27 0;
#X connect 25 0 24 1;
#X connect 26 0 8 0;
#X connect 26 0 30 0;
#X connect 27 0 21 0;
#X connect 28 0 38 0;
#X connect 28 1 38 0;
#X connect 28 2 32 0;
#X connect 29 0 28 0;
#X connect 30 0 29 0;
#X connect 30 1 28 0;
#X connect 31 0 28 0;
#X connect 32 0 74 0;
#X connect 33 0 32 1;
#X connect 34 0 38 1;
#X connect 35 0 34 0;
#X connect 36 0 35 0;
#X connect 38 0 39 0;
#X connect 39 0 40 0;
#X connect 39 0 40 1;
#X connect 42 0 36 0;
#X connect 44 0 46 0;
#X connect 44 0 49 1;
#X connect 45 0 44 0;
#X connect 46 0 47 0;
#X connect 47 0 64 0;
#X connect 48 0 49 0;
#X connect 48 0 50 0;
#X connect 49 0 54 0;
#X connect 50 0 51 0;
#X connect 54 0 59 0;
#X connect 55 0 59 1;
#X connect 56 0 55 0;
#X connect 57 0 56 0;
#X connect 59 0 60 0;
#X connect 60 0 61 0;
#X connect 60 0 61 1;
#X connect 64 0 48 0;
#X connect 65 0 70 0;
#X connect 70 0 47 0;
#X connect 70 1 64 1;
#X connect 73 0 9 0;
#X connect 74 0 73 0;
